PathFileType	4	(X/Y/Z)	Walk1_0-155.trc
DataRate	CameraRate	NumFrames	NumMarkers	Units	OrigDataRate	OrigDataStartFrame	OrigNumFrames
30	30	9	22	m	30	38	155
Frame#	Time	Hip			RHip			RKnee			RAnkle			RBigToe			RSmallToe			RHeel			LHip			LKnee			LAnkle			LBigToe			LSmallToe			LHeel			Neck			Head			Nose			RShoulder			RElbow			RWrist			LShoulder			LElbow			LWrist		
		X1	Y1	Z1	X2	Y2	Z2	X3	Y3	Z3	X4	Y4	Z4	X5	Y5	Z5	X6	Y6	Z6	X7	Y7	Z7	X8	Y8	Z8	X9	Y9	Z9	X10	Y10	Z10	X11	Y11	Z11	X12	Y12	Z12	X13	Y13	Z13	X14	Y14	Z14	X15	Y15	Z15	X16	Y16	Z16	X17	Y17	Z17	X18	Y18	Z18	X19	Y19	Z19	X20	Y20	Z20	X21	Y21	Z21	X22	Y22	Z22
39	1.3	-2.1025027136248884	0.8458381528258195	0.37404656451345836	-2.05235601935874	0.8285541849067061	0.4729369317223329	-2.0007313509205504	0.4784708367273862	0.4267139502612804	-2.0469251179589865	0.08160469819883652	0.4418701491319488	-1.8032062234111188	0.020772049395571344	0.4389670355419036	-1.8344972030950746	0.016394151975949085	0.5038299243280461	-2.0596893240269214	0.009585524543135346	0.4219661954941486	-2.134998340782752	0.8199472993598632	0.2801625147202987	-2.0739554777049314	0.4381068294201472	0.2796427251804554	-2.397939766937611	0.2050525941087126	0.2847095723096425	-2.341322732249484	-0.023047315070771766	0.27284704080297756	-2.3958739519647603	-0.004257731051784426	0.24009789515223032	-2.469413886976345	0.18099671730383382	0.2815939850355007	-2.1179776838190563	1.5260170850181007	0.33912090756925556	-2.0623180465286173	1.7688521697561903	0.36327119690152954	-1.96952439740386	1.652034717899097	0.3519329396819742	-2.1457988842670463	1.4071249663282939	0.5330884810804446	-2.1216515562117855	1.0971552342384434	0.6186807002804473	-2.101719582107117	0.8451193847522848	0.6433305489769549	-2.1839302396230154	1.4193790500064047	0.13608576670567146	-2.1642913616550428	1.1058774840485788	0.09474520813484513	-2.0872122922257392	0.8589060655317338	0.10481326317036911
40	1.3333333333333333	-2.0750964854640928	0.8493617641708511	0.37426683938901356	-2.0407453436442182	0.8324523701645687	0.4748874990508896	-1.973363642075507	0.46273688694999104	0.4602149937967538	-2.014847511085221	0.089086844331098	0.4352602616584445	-1.8082200222366707	0.015481237880588678	0.43736513355138146	-1.8365259830117227	0.015608904659533933	0.49947809798562515	-2.0552022726599697	0.012179473950165814	0.4294539794887939	-2.0976447229741186	0.8304703391659318	0.27958656867106585	-2.0072207498205934	0.4577592079135803	0.2776079093600452	-2.33258751949144	0.22445749115876196	0.28666352953678575	-2.2996342084101595	-0.020899105129988972	0.2829953504573007	-2.3496619547718764	0.005806453691026695	0.24609567542371694	-2.4000818605474743	0.21512808152992163	0.2912623641498705	-2.0941522878053163	1.530137864633001	0.3464501076540377	-2.043270286641271	1.7748317490775518	0.3639506720245674	-1.9444166694913554	1.6585351771721495	0.35839412140934146	-2.1172616666203314	1.41495634668257	0.5362512308043278	-2.079071795258034	1.1003153529694114	0.6186203007628651	-2.0474753771889205	0.846405569065275	0.6414124520858471	-2.1608686128523256	1.428734698083003	0.14523896034520514	-2.112790801681885	1.1022084070176508	0.1360050352023492	-2.0565961032754365	0.8577342819499938	0.12314531642390072
41	1.3666666666666667	-2.0523883641107297	0.8506008765802469	0.37551235770324565	-2.0304374610501994	0.8325206407969816	0.4783397598295649	-1.9998759739535366	0.4731316218176767	0.43551185086017075	-2.0504532864685125	0.07912082568682621	0.44805794558640316	-1.817663535121456	0.008952004761036868	0.4326291207899839	-1.8747620164335017	-0.009344023752607006	0.4774888084767485	-2.0617170279966635	0.009434446067048324	0.4330531161792589	-2.0629469242345575	0.8333191616865637	0.2844982605336779	-1.936836680540713	0.4788728146905837	0.28061217494896507	-2.2626476001216944	0.23815260200754987	0.293217299325918	-2.2261177624855173	-0.018634408285106818	0.2833192926675182	-2.2671289571196196	0.011774836146524349	0.2447027284328959	-2.3350260264005978	0.23031467760192156	0.3014105087490658	-2.066200667169439	1.5387144558782824	0.34965207482363486	-2.0185138731820738	1.7810247815339042	0.37069493871945813	-1.9184288773689708	1.6503903256351593	0.3556820531962278	-2.08945989491936	1.419542395702437	0.5429436836435452	-2.0418208758841216	1.1028703521990875	0.6224797674500127	-1.9922438343347262	0.8526217292485218	0.6429184581780135	-2.1344386575886274	1.4360712843761358	0.15150443491375215	-2.1170155944189437	1.121999654084814	0.10908925170173103	-2.0224345131662202	0.8658312780164242	0.12298744354318501
42	1.4	-2.0258369316518245	0.8524945774743915	0.3795299220659081	-2.0134485625505643	0.8303817173084092	0.4826669360085353	-1.9963282278190555	0.4737578248942312	0.44534493894155036	-2.008735156416764	0.10118406075234555	0.4401081416969143	-1.8343687156304704	0.00029513713442852376	0.42214489312184544	-1.876836115978914	-0.00907272913194997	0.48039326269852073	-2.0504330120350565	0.02537282829643351	0.43440263684970454	-2.035261087402624	0.8362648186142155	0.2826300316264863	-1.8653185875044185	0.5026081139278198	0.2825058230362195	-2.1900377680872904	0.22050851607722044	0.31406744224508265	-2.1146321403271546	0.010112451657702907	0.2844129349539929	-2.156747715721028	0.04085075909124437	0.23734190057911414	-2.2561887243029477	0.18888388818099178	0.32472808835796674	-2.0371321830065665	1.5449479887204065	0.3566916319484184	-1.9890231562135383	1.7858545032556923	0.373760706456465	-1.8896701232394932	1.6533850258525062	0.3590403791805939	-2.0630705528250344	1.4265351876279484	0.5451444746780385	-2.0006561959830553	1.1048649485504645	0.6255226528315116	-1.9256401466305237	0.8580669814773312	0.6494319741647061	-2.107864833307713	1.4386110085258805	0.15103433802251665	-2.094827203114383	1.1268980440637548	0.11329022448493695	-2.021210481900927	0.8661877154453653	0.122323381798743
43	1.4333333333333333	-2.0010344262824167	0.8559750240802105	0.383241972625745	-1.994988328670734	0.8310115012534371	0.48534092746667473	-1.9955558323102924	0.4689187681641917	0.45170972291127415	-2.012285870239682	0.10755064266790731	0.4461466020188206	-1.8409889151462373	0.012685442217526736	0.4489920726886632	-1.8853094779193411	0.0008493888269066636	0.48768110876236176	-2.0615383744681153	0.03465865012721584	0.4464173838982883	-1.9974261728184168	0.8414568026363678	0.28434946413751894	-1.8073499845286747	0.5207755385871543	0.2873544571564545	-2.0947158985696803	0.2145804730112985	0.3164924998493545	-1.9543316511410842	0.043652242482709505	0.30773275731777455	-2.017346614692236	0.053063642684019495	0.25907632362367206	-2.161873268511309	0.1749489925109078	0.3178244303263477	-2.0079829988666	1.549413569796756	0.3580462634533231	-1.948451221243939	1.792078676469411	0.3826438236019904	-1.8627866668036965	1.6587738073769835	0.36506586272531827	-2.036179383199217	1.4327770759266387	0.5484414222494818	-1.9624277250197972	1.1111697480191396	0.6292561671983212	-1.8654843612877818	0.8684093642362566	0.6461388000941221	-2.0773126348644406	1.4385500425738147	0.15937025593304416	-2.038233048533352	1.1076067540273098	0.1318189096367085	-1.9957986515148904	0.8678759248343465	0.12657505736031152
44	1.4666666666666666	-1.9721746665869393	0.8610861442732438	0.387746922291359	-1.9759076043398964	0.8331745631999985	0.4854030495762658	-1.9918809438195944	0.47265827884825107	0.45961263866659174	-2.0207843227663167	0.10630075352927411	0.45097757131648986	-1.8265125767643913	0.011620432510394175	0.4345243641185515	-1.875575414432391	0.008720926313543875	0.502302480945831	-2.0673731035469864	0.030354308380430323	0.4524085780456646	-1.9595602239904435	0.8503402825191317	0.28441711909956463	-1.7564713470597717	0.5388494448090823	0.2928844859450723	-2.005296754839534	0.20098295922462198	0.3179945132054353	-1.873072548013791	0.02743405921351466	0.31202722423994883	-1.9234350764227635	0.04132319777163136	0.257312303189495	-2.08159934148544	0.13970977942254767	0.3198066739515809	-1.9817388995129641	1.5497165067893746	0.3602925594482689	-1.9219332993054656	1.8038839359019037	0.3684415001086954	-1.8334455988886413	1.6575050131653573	0.3682196117353891	-2.009431581804311	1.433550986208324	0.5471663789304897	-1.922066336102663	1.1214262959237982	0.6323141532671297	-1.8097156862574124	0.886168694429795	0.6552536693163942	-2.050104902550312	1.4377016392530348	0.15663008864348513	-2.012532369510186	1.1045805049514796	0.13208707783030538	-1.9754799319329455	0.8703832278380395	0.12898415689056775
45	1.5	-1.939903044910587	0.865955442854224	0.3891578346038079	-1.9522605036643403	0.8411069091053491	0.4849067619943671	-1.987661467884639	0.4684317694433334	0.46093488883952966	-2.0133233206222747	0.09463050609503429	0.4449026213602266	-1.8531235707264562	0.0008693447059120176	0.43289920869911497	-1.9034662530586637	-0.001943368791980132	0.49286144578171687	-2.0493070312444193	0.018759596159938847	0.4470639180561883	-1.922648594892926	0.8630195132579508	0.284693361258735	-1.715623299854883	0.5467946999092054	0.2902413047185406	-1.919800239029231	0.16809915033476686	0.3183564678505992	-1.7546088977729026	0.02306506914095629	0.30721098028804356	-1.8039877041070307	0.028840379657467042	0.2533785979724409	-1.990051785833523	0.09853340278030746	0.3232572054085458	-1.9519560943545402	1.55204182851334	0.3591029726468916	-1.9032144267932496	1.7993395849085425	0.3648039133728142	-1.8055918685795855	1.6596272289862617	0.3676602583786532	-1.980055408855495	1.4410735976247715	0.5469177305065815	-1.8837137260061578	1.1274268641311285	0.6340944587707211	-1.7526792039537635	0.8969118360882693	0.6573371710543643	-2.021951678595946	1.4377236425814217	0.15735554761746465	-2.015016927570996	1.1320038457472112	0.12465007634081887	-1.9514733526490498	0.8652980425182036	0.13535344089340876
46	1.5333333333333334	-1.9137492898710953	0.8642354444490562	0.3915454151635958	-1.9318816890981299	0.8432589448621405	0.4895470249602792	-1.9811884109872078	0.4667839443948696	0.46201171734843655	-2.014187838802599	0.08096984989619398	0.4385022163494729	-1.8352592930855627	-0.005708413199008287	0.4509991534294431	-1.9049891204650709	-0.007906070218527317	0.49460300522470185	-2.044350897477275	0.014788716034553947	0.44016439768410454	-1.8963266499121192	0.8663390035648941	0.2887040856490258	-1.6840242921140476	0.5592378464099709	0.2820433707837104	-1.816918423794216	0.14587557590117312	0.30677103211167867	-1.6250450159563428	0.03787505467099577	0.28636436504420454	-1.6421791756718205	0.04792648699855558	0.24923861507738052	-1.8826647935079617	0.06609917833061706	0.3199515708644351	-1.921417599588307	1.5549809086478281	0.36275504021588095	-1.878408672940138	1.7981055257568488	0.3605742692871438	-1.7740257970261364	1.6563791741889717	0.3678358395767753	-1.9500917302051908	1.4412174977161707	0.5464035782318433	-1.845491397772458	1.128505720745556	0.6311487489831152	-1.6893453032714159	0.8993507068350277	0.6455597613926658	-1.9911624492823519	1.4419018593376418	0.1564098215695121	-1.9927078496127184	1.132394473229612	0.1200203048573477	-1.9271063381242246	0.862159578231265	0.1319686352186618
47	1.5666666666666667	-1.8871158011386144	0.8598884477074361	0.3944003930912101	-1.9092641246968673	0.8356431026270684	0.4926433788353925	-1.9761869859696142	0.4635312298700082	0.45962906991553887	-2.0208288207586507	0.06747050617127662	0.4285772422511853	-1.8545109891860079	-0.020989559136329657	0.42341987253371344	-1.9056730763464722	-0.02634789647796732	0.465219628567218	-2.1029483195175906	-0.02013877058736787	0.4157428031164777	-1.8677344813835517	0.8627324960845891	0.2880072980697089	-1.6547725966349587	0.5420107902582252	0.2752233341627452	-1.6809326280198984	0.14114267946518072	0.3098023841422193	-1.4842363974351873	0.03852038254866908	0.2990532258391994	-1.5334949689852935	0.03756501962993295	0.24527677613337473	-1.765437569502918	0.034626878365435425	0.32714839397652384	-1.8908120859952693	1.5528360660834448	0.36153986163937646	-1.838171954005423	1.8001004383815309	0.36395026070636016	-1.7438580659870095	1.6583005580654986	0.3698905064699547	-1.9226562776181444	1.4365670240941237	0.5453920041096039	-1.8040329390486929	1.1288785148964449	0.6328599533375365	-1.6365207360116456	0.9047797567061863	0.6364998688669073	-1.9542581386836448	1.439932656519072	0.16085512825502563	-1.9592052624892622	1.1282467056638184	0.12755884226562567	-1.9031300979328474	0.8587115661603317	0.12814947729097803
